<?xml version="1.0" encoding="UTF-8" standalone="no"?>
<!-- Created with Inkscape (http://www.inkscape.org/) -->

<svg
   xmlns:dc="http://purl.org/dc/elements/1.1/"
   xmlns:cc="http://creativecommons.org/ns#"
   xmlns:rdf="http://www.w3.org/1999/02/22-rdf-syntax-ns#"
   xmlns:svg="http://www.w3.org/2000/svg"
   xmlns="http://www.w3.org/2000/svg"
   xmlns:sodipodi="http://sodipodi.sourceforge.net/DTD/sodipodi-0.dtd"
   xmlns:inkscape="http://www.inkscape.org/namespaces/inkscape"
   width="145.81844mm"
   height="28.972567mm"
   viewBox="0 0 145.81844 28.972567"
   version="1.1"
   id="svg8"
   inkscape:version="0.92.3 (2405546, 2018-03-11)"
   sodipodi:docname="logo-in-riga-contorno-chiaro.svg">
  <defs
     id="defs2" />
  <sodipodi:namedview
     id="base"
     pagecolor="#ffffff"
     bordercolor="#666666"
     borderopacity="1.0"
     inkscape:pageopacity="0.0"
     inkscape:pageshadow="2"
     inkscape:zoom="0.24748737"
     inkscape:cx="-377.55279"
     inkscape:cy="-170.20521"
     inkscape:document-units="mm"
     inkscape:current-layer="layer1"
     showgrid="false"
     inkscape:snap-global="false"
     inkscape:window-width="1920"
     inkscape:window-height="1057"
     inkscape:window-x="-8"
     inkscape:window-y="-8"
     inkscape:window-maximized="1" />
  <metadata
     id="metadata5">
    <rdf:RDF>
      <cc:Work
         rdf:about="">
        <dc:format>image/svg+xml</dc:format>
        <dc:type
           rdf:resource="http://purl.org/dc/dcmitype/StillImage" />
        <dc:title></dc:title>
      </cc:Work>
    </rdf:RDF>
  </metadata>
  <g
     inkscape:label="Layer 1"
     inkscape:groupmode="layer"
     id="layer1"
     transform="translate(110.80644,64.693255)">
    <path
       style="fill:#f9f9f9;stroke-width:0.25399998"
       d="m -91.254087,-35.89999 c -0.244475,-0.147676 -0.447976,-0.462849 -0.452224,-0.700382 -0.0071,-0.39864 -0.02765,-0.397668 -0.266622,0.01262 -0.343131,0.58912 -1.146042,0.562871 -1.942345,-0.0635 -0.3552,-0.2794 -0.793557,-0.508 -0.974128,-0.508 -0.538576,0 -1.301913,-1.18031 -1.47882,-2.286625 -0.296194,-1.852299 1.101771,-5.945016 2.866476,-8.391969 1.053925,-1.461378 2.627013,-2.705445 3.905193,-3.088397 0.947021,-0.283734 1.045857,-0.263163 1.529374,0.318326 0.29716,0.357369 0.451338,0.440357 0.362654,0.195202 -0.08485,-0.234554 -0.235984,-0.863204 -0.335852,-1.397 -0.38073,-2.034995 -1.961601,-5.020456 -3.952616,-7.464488 -2.590479,-3.179895 -9.156243,-3.43981 -11.430763,-0.452504 -1.79672,2.35978 -2.82732,6.442649 -2.14936,8.515057 l 0.18077,0.552605 1.32238,-0.580505 c 0.72731,-0.319278 1.55098,-0.54601 1.83038,-0.50385 1.88169,0.28394 2.17811,0.436827 3.365136,1.73562 1.707353,1.868117 2.455786,4.312803 2.302418,7.520634 -0.09096,1.902481 -0.209009,2.385614 -0.801773,3.281342 -1.241301,1.875732 -1.873623,2.107979 -5.238941,1.924236 -3.29804,-0.180071 -3.90624,-0.431493 -5.5436,-2.291629 -1.20755,-1.371853 -1.93403,-3.573344 -2.3885,-7.238058 -0.62593,-5.047393 -0.14468,-8.501775 1.6177,-11.611521 1.09131,-1.925654 3.25877,-3.886596 5.41756,-4.901374 2.24551,-1.05554 3.702344,-1.335517 7.112003,-1.366795 2.061788,-0.01891 2.478296,0.06281 4.2466,0.83326 2.263585,0.986241 5.578396,3.855311 6.926846,5.995397 1.40377,2.227878 2.161553,5.053277 2.161553,8.059344 0,1.437723 0.106322,2.984763 0.236268,3.437866 0.287805,1.003515 -0.03365,1.089551 -0.472468,0.126455 -0.256273,-0.562457 -0.345,-2.495116 -0.218699,-4.763632 0.04815,-0.864897 -0.652353,-3.347097 -1.419938,-5.031448 -0.735434,-1.613808 -1.294267,-2.359802 -3.108805,-4.149991 -1.216707,-1.200381 -2.621957,-2.348925 -3.122777,-2.552319 -0.500819,-0.203393 -1.42493,-0.615096 -2.05358,-0.914894 -0.994263,-0.474156 -4.971034,-1.011828 -4.572,-0.618149 0.06985,0.06891 1.103314,0.542294 2.296588,1.051959 1.193273,0.509666 2.479148,1.213705 2.8575,1.564532 0.71076,0.659054 0.917487,1.043176 0.383958,0.713437 -0.167174,-0.103319 -0.04509,0.175685 0.271296,0.62001 0.636594,0.894013 0.865762,1.034707 0.613161,0.376438 -0.137312,-0.357828 -0.03482,-0.338335 0.600794,0.114263 0.920088,0.655161 2.439716,3.400943 2.50841,4.532388 0.02707,0.445824 0.251115,1.556471 0.497881,2.468103 0.442379,1.634278 0.360866,4.006533 -0.111412,3.242374 -0.267957,-0.433563 -1.082318,-0.01809 -2.361677,1.204877 -0.901374,0.861646 -1.295293,1.557259 -0.659254,1.164165 0.183144,-0.113189 0.224237,-0.06958 0.109449,0.116153 -0.101088,0.163564 -0.291124,0.231057 -0.422302,0.149984 -0.543577,-0.335949 -3.028211,6.615548 -3.028316,8.472609 -5.1e-5,0.906371 0.09046,1.292538 0.276052,1.177834 0.15187,-0.09386 0.219721,-0.386357 0.150779,-0.649991 -0.06894,-0.263634 -0.02934,-0.479334 0.088,-0.479334 0.117342,0 0.249516,0.314325 0.29372,0.6985 0.102232,0.888487 1.091603,1.132807 1.345672,0.332308 0.09126,-0.287545 0.284759,-0.522808 0.429991,-0.522808 0.145232,0 0.203232,0.158514 0.128887,0.352252 -0.09597,0.250097 0.0119,0.313792 0.371952,0.219634 0.296383,-0.07751 0.815088,0.09507 1.248205,0.41529 0.514462,0.380358 0.936113,0.498953 1.378873,0.387828 0.789346,-0.198113 0.809622,-0.449364 0.06629,-0.821439 -0.538447,-0.269517 -0.530937,-0.277474 0.12986,-0.137561 1.123378,0.237858 2.716624,-1.246721 3.810922,-3.550997 0.492343,-1.036737 0.973163,-2.240071 1.068486,-2.674078 0.274516,-1.249866 0.676923,-1.240153 0.49209,0.01188 -0.275918,1.869032 -1.931216,5.084426 -3.08992,6.002138 -0.563222,0.44608 -1.140943,0.811055 -1.283823,0.811055 -0.14288,0 -0.299898,0.120347 -0.348927,0.267436 -0.0783,0.234905 -0.923801,0.523748 -2.620188,0.895119 -0.2794,0.06117 -0.708025,-0.0096 -0.952499,-0.157294 z m -12.692663,-2.719761 c -0.36257,-0.384175 -1.07988,-1.469372 -1.59404,-2.411548 l -0.93482,-1.713048 0.11323,-2.731952 c 0.0623,-1.502574 0.19143,-3.017702 0.28701,-3.366952 0.0956,-0.34925 -0.0229,-0.1778 -0.26336,0.381 -0.24042,0.5588 -0.54335,1.087588 -0.67316,1.175085 -0.12981,0.0875 -0.29558,0.687572 -0.36839,1.3335 -0.18349,1.627919 -0.52772,1.483412 -0.37896,-0.159085 0.0729,-0.804996 0.41779,-1.881535 0.87018,-2.71628 0.70004,-1.291723 0.73316,-1.47571 0.50283,-2.794 -0.44526,-2.548432 0.48585,-6.320708 1.97058,-7.98349 0.53016,-0.593742 0.55709,-0.680804 0.14406,-0.465687 -0.2794,0.14552 -0.85282,0.391245 -1.27427,0.546054 -0.44963,0.165161 -0.90451,0.593754 -1.10079,1.037188 -0.18398,0.415643 -0.44598,0.755715 -0.58222,0.755715 -0.13623,0 -0.16614,-0.13196 -0.0665,-0.293245 0.11229,-0.181686 0.0697,-0.224298 -0.11201,-0.11201 -0.16128,0.09968 -0.29324,0.389095 -0.29324,0.643144 0,0.25405 -0.17247,0.605049 -0.38328,0.779998 -0.2108,0.174948 -0.45367,0.758366 -0.53972,1.296484 -0.16272,1.017576 -0.58477,1.117283 -0.62283,0.147139 -0.0174,-0.44288 -0.0683,-0.400922 -0.2495,0.20549 -0.12522,0.4191 -0.14397,0.790792 -0.0417,0.825983 0.1023,0.03519 0.186,0.806695 0.186,1.714454 0,0.907759 0.0897,1.650492 0.19943,1.650517 0.10969,2.5e-5 0.0933,0.200071 -0.0365,0.444546 -0.30503,0.574665 0.50548,6.862786 1.09475,8.493265 0.23669,0.654921 0.61487,1.340721 0.84039,1.524 0.35454,0.288127 0.38627,0.269872 0.23441,-0.134862 -0.3143,-0.837629 -0.48584,-1.690903 -0.33993,-1.690903 0.0784,0 0.321,0.375911 0.53902,0.835356 0.53383,1.124964 1.87214,2.720644 2.28182,2.720644 0.18228,0 0.4737,0.17145 0.64761,0.381 0.17391,0.20955 0.38074,0.381 0.45962,0.381 0.0789,0 -0.15322,-0.314325 -0.51578,-0.6985 z m -3.85366,-4.275274 c -0.26892,-0.700781 -0.17709,-0.949443 0.22682,-0.614226 0.41579,0.345076 0.51761,1.016 0.15418,1.016 -0.12475,0 -0.2962,-0.180798 -0.381,-0.401774 z m 1.03116,-7.895559 c -0.0931,-0.09313 -0.15951,-0.464609 -0.1475,-0.8255 0.0214,-0.644298 0.0259,-0.642614 0.2456,0.09307 0.23088,0.773055 0.19682,1.027358 -0.0981,0.732435 z m -0.93134,-2.131657 c 0,-0.147945 0.1143,-0.198349 0.254,-0.11201 0.1397,0.08634 0.254,0.207385 0.254,0.26899 0,0.06161 -0.1143,0.11201 -0.254,0.11201 -0.1397,0 -0.254,-0.121046 -0.254,-0.26899 z m 0.55752,-1.38201 c 0.005,-0.4191 0.0621,-0.5598 0.1265,-0.312666 0.0644,0.247134 0.0602,0.590034 -0.009,0.762 -0.0696,0.171966 -0.12227,-0.03023 -0.11709,-0.449334 z m -0.55752,-2.258825 c 0,-0.0549 0.17739,-0.167894 0.3942,-0.25109 0.22604,-0.08674 0.32799,-0.04416 0.23901,0.09982 -0.14917,0.241352 -0.63321,0.356984 -0.63321,0.151266 z m 8.630357,18.136848 c 0.263583,-0.141067 0.551835,-0.485204 0.64056,-0.764754 0.08873,-0.279547 0.254347,-0.508269 0.368049,-0.508269 0.310087,0 0.775037,-2.089759 0.775037,-3.483473 0,-1.647228 -0.792327,-4.408543 -1.626802,-5.66952 -1.266821,-1.914301 -3.134021,-2.508412 -4.959771,-1.578112 -1.30285,0.663866 -1.84612,1.954435 -1.98736,4.72109 -0.10616,2.079469 -0.0518,2.475627 0.51069,3.724015 0.71035,1.576449 1.99159,3.277474 2.81385,3.735769 0.60779,0.33876 2.70208,0.231955 3.465747,-0.176746 z m -2.634117,-1.141184 c -1.14031,-0.333756 -2.085,-1.385434 -2.26345,-2.519788 -0.0681,-0.432878 -0.21271,-1.072801 -0.32135,-1.422051 -0.1767,-0.568029 -0.15341,-0.598822 0.2208,-0.291977 0.23007,0.188662 0.49372,0.744954 0.58588,1.236204 0.18016,0.960319 1.45721,2.611773 2.01965,2.611773 0.18873,0 0.64102,-0.297872 1.00508,-0.661939 0.846919,-0.846917 1.17535,-0.568702 0.35699,0.302404 -0.33816,0.359954 -0.57674,0.711927 -0.53017,0.782166 0.16976,0.256055 -0.10507,0.246636 -1.07343,-0.03679 z m 2.757376,-3.624339 c 0.360389,-0.931555 0.430878,-1.786495 0.161044,-1.953261 -0.15438,-0.09541 -0.212159,-0.44575 -0.128493,-0.779102 0.115579,-0.460503 -0.07979,-0.883057 -0.814855,-1.762434 -0.531782,-0.636187 -1.114132,-1.156703 -1.294092,-1.156703 -0.17997,0 -0.32722,-0.1143 -0.32722,-0.254 0,-0.567128 0.75558,-0.19078 1.722092,0.857763 0.906611,0.983557 1.045199,1.302366 1.201792,2.764614 0.183925,1.717462 0.02535,2.727623 -0.428173,2.727623 -0.14766,0 -0.188256,-0.195937 -0.0921,-0.4445 z m -5.578616,-2.3495 c -0.0863,-0.1397 -0.0359,-0.254 0.11201,-0.254 0.14795,0 0.26899,0.1143 0.26899,0.254 0,0.1397 -0.0504,0.254 -0.11201,0.254 -0.0616,0 -0.18265,-0.1143 -0.26899,-0.254 z m 1.651,-0.26899 c 0,-0.147945 0.1143,-0.198349 0.254,-0.11201 0.1397,0.08634 0.254,0.207385 0.254,0.268991 0,0.06161 -0.1143,0.112009 -0.254,0.112009 -0.1397,0 -0.254,-0.121045 -0.254,-0.26899 z m -1.016,-2.39801 c 0,-0.20955 0.11072,-0.381 0.24603,-0.381 0.13532,0 0.18024,0.17145 0.0998,0.381 -0.0804,0.20955 -0.19112,0.381 -0.24603,0.381 -0.0549,0 -0.0998,-0.17145 -0.0998,-0.381 z m 0.508,-0.834948 c 0,-0.109971 0.23107,-0.217353 0.51349,-0.238627 0.28242,-0.02127 0.44713,0.0687 0.36601,0.199947 -0.17843,0.288711 -0.8795,0.319544 -0.8795,0.03868 z m 8.636003,9.586856 c 0,-0.994254 1.331775,-4.954031 2.327998,-6.921853 0.59696,-1.179165 2.105721,-2.884525 3.133001,-3.541247 0.691437,-0.442023 0.703197,-0.470572 0.127,-0.308292 -1.779973,0.501309 -3.050295,1.692334 -4.440767,4.163561 -1.602538,2.848124 -2.284868,5.543259 -1.794524,7.088196 0.283453,0.893079 0.647292,0.623069 0.647292,-0.480365 z m -11.684003,0.436367 c 0,-0.0455 -0.31432,-0.359821 -0.6985,-0.6985 l -0.6985,-0.615775 0.61578,0.6985 c 0.57554,0.652854 0.78122,0.814982 0.78122,0.615775 z m -2.86835,-6.073813 c -0.0608,-0.315954 -0.11277,-0.117262 -0.11559,0.441538 -0.003,0.5588 0.0469,0.817308 0.11046,0.574462 0.0636,-0.242846 0.0659,-0.700046 0.005,-1.016 z m -0.61405,-6.035462 c -0.0731,-0.2794 -0.17666,-0.508 -0.23022,-0.508 -0.0536,0 -0.0974,0.2286 -0.0974,0.508 0,0.2794 0.1036,0.508 0.23022,0.508 0.12662,0 0.17044,-0.2286 0.0974,-0.508 z m 0.10242,-2.471666 c -0.0644,-0.247134 -0.12132,-0.106434 -0.1265,0.312666 -0.005,0.4191 0.0475,0.6213 0.11709,0.449334 0.0696,-0.171966 0.0738,-0.514866 0.009,-0.762 z m 5.79298,-6.946361 c 0.38722,-0.153797 0.25133,-0.21466 -0.5715,-0.255973 -0.59372,-0.02981 -1.22081,-0.06563 -1.39352,-0.0796 -0.17271,-0.01397 -0.35389,0.18163 -0.40262,0.434666 -0.0776,0.403149 0.0319,0.437959 0.88552,0.281373 0.53577,-0.09828 1.20272,-0.26949 1.48212,-0.380466 z m 2.23016,-1.434412 c 1.32679,-0.581528 1.925659,-0.690315 3.738843,-0.679181 2.114239,0.01299 2.140569,0.0057 1.27,-0.351358 -0.48895,-0.200539 -1.74625,-0.405858 -2.794,-0.456264 -1.165363,-0.05606 -1.658453,-0.01384 -1.270003,0.108741 0.6008,0.189595 0.58347,0.210374 -0.32182,0.385765 -0.52625,0.101957 -1.07201,0.114186 -1.21279,0.02718 -0.14078,-0.08701 -0.22457,-0.0068 -0.18618,0.17818 0.0419,0.202 -0.15253,0.328966 -0.48673,0.317822 -0.30608,-0.01021 -0.53468,0.104093 -0.508,0.254 0.0267,0.149907 -0.18008,0.288983 -0.45948,0.309058 -0.95987,0.06897 -1.01504,0.0989 -0.635,0.3445 0.60333,0.3899 1.17475,0.302459 2.86516,-0.438439 z m 12.374842,22.790439 c 0,-0.1397 0.121046,-0.254 0.268991,-0.254 0.147944,0 0.198349,0.1143 0.112009,0.254 -0.08634,0.1397 -0.207384,0.254 -0.26899,0.254 -0.06161,0 -0.11201,-0.1143 -0.11201,-0.254 z m 87.1219952,-1.366677 c 0,-0.574333 0.444959,-0.732861 0.712942,-0.254004 0.138298,0.247124 0.364454,0.342716 0.545744,0.230674 0.222926,-0.137776 0.232288,-0.268619 0.03345,-0.467461 -0.400464,-0.400465 -0.338488,-0.936532 0.108277,-0.936532 0.339451,0 0.341719,-0.102168 0.01941,-0.873583 -0.320883,-0.767981 -0.319512,-0.856124 0.01135,-0.72916 0.288122,0.110563 0.35801,-0.02704 0.298097,-0.586917 -0.06909,-0.645618 -0.0038,-0.723576 0.556737,-0.6651 2.035028,0.212282 3.81,0.227107 3.81,0.03182 -3e-6,-0.123785 -0.102266,-0.225063 -0.227254,-0.225063 -0.133121,0 -0.134394,-0.39453 -0.0031,-0.9525 0.246235,-1.046189 0.02499,-3.34726 -0.275126,-2.861641 -0.122725,0.198576 -0.235358,0.112638 -0.330822,-0.252413 -0.125471,-0.479804 -0.256977,-0.52914 -0.987737,-0.370561 -0.463649,0.100614 -0.900148,0.265764 -0.969998,0.367 -0.246332,0.357017 -1.283614,0.78968 -1.52925,0.63787 -0.136805,-0.08455 -0.248742,-0.385116 -0.248742,-0.667913 0,-0.301217 -0.131501,-0.468196 -0.3175,-0.403159 -0.174625,0.06106 -0.28113,0.311308 -0.23668,0.556107 0.05033,0.277196 -0.04548,0.40299 -0.254,0.333483 -0.18415,-0.06138 -0.33482,-0.387832 -0.33482,-0.725441 0,-0.50687 0.143847,-0.627702 0.8255,-0.693426 0.69056,-0.06658 0.8255,0.0062 0.8255,0.444993 v 0.524587 l 0.948738,-0.508493 c 1.54293,-0.826961 2.644592,-0.601414 3.327773,0.681308 0.325651,0.611434 0.399047,2.177973 0.115336,2.461685 -0.09909,0.09908 -0.148615,0.616965 -0.110068,1.150845 l 0.07009,0.970693 -1.811866,0.178536 c -1.239245,0.122112 -1.923562,0.08583 -2.165299,-0.114789 -0.296265,-0.245877 -0.365427,0.04925 -0.427568,1.824452 l -0.07413,2.117777 -0.9525,0.07883 c -0.712719,0.05899 -0.9525,-0.01717 -0.9525,-0.30251 z m -84.0739952,-0.254698 c 0,-0.05356 0.228758,-0.157198 0.508351,-0.230313 0.279593,-0.07312 0.444296,-0.0293 0.366009,0.09738 -0.136716,0.221211 -0.87436,0.333362 -0.87436,0.132937 z m 0.05821,-0.71225 c 0.0553,-0.165893 0.23635,-0.346894 0.402339,-0.402224 0.18561,-0.06187 0.242377,0.05425 0.147449,0.301625 -0.17717,0.461699 -0.702178,0.557764 -0.549788,0.100599 z m 84.3271162,-2.998741 c 0.04265,-1.426722 0.188267,-2.429243 0.37542,-2.584574 0.235846,-0.195742 0.283517,0.31597 0.208495,2.238092 -0.05842,1.496814 -0.20833,2.528877 -0.375419,2.584573 -0.191354,0.06378 -0.256421,-0.634695 -0.208496,-2.238091 z m -30.8548282,0.994021 c -0.669527,-0.389963 -0.56609,-1.459145 0.173774,-1.796251 0.447055,-0.203691 0.665708,-0.562453 0.789551,-1.295481 0.148819,-0.880853 0.08557,-1.093245 -0.482348,-1.619853 -0.932008,-0.864207 -0.598991,-1.695423 0.753176,-1.879939 0.859632,-0.117305 0.913919,-0.160883 0.416847,-0.334617 -1.163087,-0.406515 -0.203419,-2.451514 1.150434,-2.451514 1.11189,0 1.431491,1.712404 0.46194,2.475054 -0.493654,0.388308 -0.542593,0.52517 -0.256363,0.716936 0.284216,0.190415 0.310112,0.611523 0.13172,2.14201 -0.172479,1.479759 -0.144242,2.029602 0.126497,2.463192 0.487505,0.780741 0.205194,1.293704 -0.877499,1.594431 -1.158415,0.321758 -1.817946,0.3179 -2.387729,-0.01397 z m 1.8415,-0.885643 c 0,-0.200206 0.1143,-0.364012 0.254,-0.364012 0.1397,0 0.254,0.17145 0.254,0.381 0,0.387019 0.298678,0.505655 0.575675,0.228659 0.239019,-0.23902 -0.38023,-1.403512 -0.684418,-1.28704 -0.163007,0.06242 -0.288084,-0.315859 -0.311701,-0.942686 -0.02169,-0.575813 0.01798,-0.818333 0.08816,-0.538933 0.301477,1.200273 0.586288,0.910521 0.586288,-0.596462 0,-1.549319 -0.01964,-1.595394 -0.8255,-1.93747 -0.463037,-0.19655 -0.923956,-0.254427 -1.049726,-0.131812 -0.283571,0.27645 -0.01406,1.014744 0.370428,1.014744 0.159032,0 0.223357,-0.17145 0.142944,-0.381 -0.08041,-0.20955 -0.03549,-0.381 0.09982,-0.381 0.138257,0 0.24603,0.892493 0.24603,2.037446 0,1.926788 -0.03449,2.053159 -0.635,2.326771 -0.867672,0.395338 -0.799255,0.887806 0.127,0.914141 0.502272,0.01428 0.762,-0.102407 0.762,-0.342346 z m -0.809625,-0.283523 c 0.183355,-0.07337 0.402432,-0.06435 0.486834,0.02005 0.0844,0.0844 -0.06562,0.144435 -0.333375,0.133406 -0.295898,-0.01219 -0.356083,-0.07238 -0.153459,-0.153459 z m 0.809625,-3.382489 c 0,-0.1397 0.1143,-0.254 0.254,-0.254 0.1397,0 0.254,0.1143 0.254,0.254 0,0.1397 -0.1143,0.254 -0.254,0.254 -0.1397,0 -0.254,-0.1143 -0.254,-0.254 z m 1.555851,-3.107516 c 0.208585,-0.389743 0.18097,-0.598521 -0.118821,-0.898311 -0.351417,-0.351415 -0.455735,-0.347858 -1.040796,0.03549 -0.357629,0.234327 -0.650234,0.542168 -0.650234,0.684089 0,0.141922 0.250151,0.02499 0.555894,-0.259855 0.305742,-0.284842 0.648642,-0.517895 0.762,-0.517895 0.371594,0 0.216029,0.504476 -0.288882,0.936794 -0.272245,0.233102 -0.440035,0.512742 -0.372867,0.621421 0.189644,0.306848 0.852465,-0.03886 1.153706,-0.601731 z m -48.149936,6.679993 c -0.428203,-0.473157 -0.431373,-0.526812 -0.04002,-0.676987 0.233769,-0.08971 0.586397,-0.54929 0.783613,-1.021296 0.558353,-1.336326 0.928954,-1.071121 0.841672,0.602306 -0.0652,1.250099 -0.151377,1.471259 -0.598188,1.535181 -0.287109,0.04107 -0.731291,-0.156567 -0.987074,-0.439204 z m 1.128088,-0.651477 c 0,-0.20955 -0.04492,-0.381 -0.09982,-0.381 -0.0549,0 -0.165616,0.17145 -0.24603,0.381 -0.08041,0.20955 -0.03549,0.381 0.09982,0.381 0.135316,0 0.246029,-0.17145 0.246029,-0.381 z m 64.871349,0.504505 c -0.516613,-0.78845 -0.719409,-3.465408 -0.34782,-4.591329 0.143665,-0.435311 0.552028,-1.064684 0.907473,-1.398607 0.536248,-0.503779 0.912213,-0.607426 2.2085302,-0.608851 1.484922,-0.0016 1.580606,0.03601 1.932625,0.760282 0.203698,0.4191 0.419806,1.349546 0.48024,2.067657 l 0.109886,1.305657 -1.235644,0.153645 c -0.679605,0.08451 -1.464244,0.12561 -1.743644,0.09134 -0.359433,-0.04408 -0.508,0.08626 -0.508,0.445698 0,0.431362 0.134117,0.492061 0.889,0.402349 1.76563,-0.209832 2.142744,-0.159843 2.234148,0.296151 0.06375,0.318024 -0.07881,0.449391 -0.501025,0.461691 l -0.590123,0.01719 0.578663,0.27882 c 1.070031,0.515579 0.449498,0.828021 -1.793443,0.903009 -2.1123532,0.07062 -2.2050272,0.04995 -2.6208662,-0.584706 z m 3.5465002,-0.250505 c -0.09563,-0.249201 -0.491388,-0.381 -1.144057,-0.381 -0.9459442,0 -1.0242702,-0.06164 -1.5057472,-1.184876 -0.540581,-1.261121 -0.35054,-1.977145 0.366756,-1.381844 0.223873,0.185799 0.9564092,0.276971 1.8522642,0.230535 1.259271,-0.06527 1.49291,-0.153419 1.555016,-0.586658 0.0402,-0.280414 -0.112009,-0.737614 -0.338234,-1.016 -0.410622,-0.505295 -0.411023,-0.505292 -0.23477,0.0019 0.502214,1.445039 0.539844,1.397 -1.094282,1.397 -1.6965782,0 -1.9309492,-0.217754 -1.6650922,-1.54704 0.120309,-0.601542 0.2636342,-0.75131 0.6278422,-0.656067 0.25957,0.06788 0.540903,0.01184 0.625188,-0.124538 0.08428,-0.136375 0.398724,-0.346999 0.698754,-0.468055 0.510687,-0.20605 0.501975,-0.221128 -0.136457,-0.2362 -1.9807302,-0.04676 -2.9702222,1.217951 -2.9460622,3.765496 0.0207,2.183179 0.34098,2.568393 2.1354222,2.568393 1.095344,0 1.322113,-0.07179 1.203459,-0.381 z m -0.154127,-3.873366 c 0.05748,-0.174552 -0.07789,-0.387364 -0.30084,-0.472917 -0.468983,-0.179966 -1.226556,0.351538 -1.007123,0.706588 0.203988,0.330057 1.179718,0.155739 1.307963,-0.233671 z m 27.1132718,4.45885 c -0.79147,-0.448817 -0.88095,-0.715368 -0.88511,-2.636708 -0.003,-1.543245 0.0769,-1.870694 0.56761,-2.317114 0.76666,-0.697426 1.74639,-0.838203 3.73604,-0.53683 1.95375,0.295935 2.53991,0.688431 1.93361,1.294739 -0.50832,0.508319 -0.50449,0.689429 0.0146,0.689429 0.35187,0 0.38768,0.19934 0.23956,1.3335 -0.0958,0.733425 -0.31054,1.461362 -0.47723,1.617638 -0.85105,0.79792 -4.08399,1.147965 -5.12906,0.555346 z m 2.60646,-0.379002 c -0.24284,-0.06357 -0.70004,-0.06588 -1.016,-0.0051 -0.31595,0.06076 -0.11726,0.11277 0.44154,0.11559 0.5588,0.0028 0.81731,-0.04689 0.57446,-0.110464 z m -1.835,-0.650982 c -0.07,-0.314325 -0.18412,-1.114425 -0.25365,-1.778 -0.10674,-1.018645 -0.058,-1.20928 0.31289,-1.224352 0.3669,-0.01491 0.35557,-0.0516 -0.0687,-0.22261 -0.68351,-0.275495 -1.11252,0.117618 -1.08753,0.996514 0.0141,0.497499 0.12747,0.681802 0.36353,0.591214 0.40741,-0.156336 0.49022,1.071762 0.089,1.319734 -0.1397,0.08634 -0.254,0.01689 -0.254,-0.154343 0,-0.171228 -0.0755,-0.235824 -0.16778,-0.143547 -0.18787,0.187873 0.63194,1.18689 0.97398,1.18689 0.12073,0 0.16224,-0.257175 0.0922,-0.5715 z m 1.91224,0.05456 c 0.27022,-0.144615 0.4913,-0.433952 0.4913,-0.642972 0,-0.209019 0.15101,-0.437983 0.33558,-0.508808 0.42059,-0.161395 0.25704,-1.500857 -0.23291,-1.907476 -0.53247,-0.441913 -1.61097,-0.05415 -1.8899,0.679484 -0.1349,0.354807 -0.1734,1.094565 -0.0855,1.643906 0.16696,1.044164 0.48695,1.214607 1.38148,0.735866 z m 1.7225,0.06184 c 0.3751,0.29316 0.38268,0.280764 0.0712,-0.116398 -0.19173,-0.244475 -0.23269,-0.4445 -0.091,-0.4445 0.37748,0 0.64055,-1.297685 0.32669,-1.611541 -0.14743,-0.147433 -0.26806,-0.459805 -0.26806,-0.694159 0,-0.234355 -0.20002,-0.58297 -0.4445,-0.7747 -0.39387,-0.308894 -0.40837,-0.302285 -0.12733,0.05802 0.17444,0.223645 0.38669,0.913877 0.47167,1.533849 0.11821,0.862422 0.0586,1.206803 -0.25367,1.465977 -0.22449,0.186313 -0.39914,0.467631 -0.38811,0.625151 0.0119,0.170059 0.0735,0.153119 0.1517,-0.0417 0.10758,-0.268135 0.20837,-0.268135 0.55144,0 z m 0.6738,-3.608899 c -0.0863,-0.1397 -0.27128,-0.254 -0.41098,-0.254 -0.1397,0 -0.18336,0.1143 -0.097,0.254 0.0863,0.1397 0.27128,0.254 0.41098,0.254 0.1397,0 0.18336,-0.1143 0.097,-0.254 z m -1.70272,-0.375826 c -0.0414,-0.03339 -0.3896,-0.136117 -0.77378,-0.228282 -0.499,-0.119712 -0.6985,-0.06994 -0.6985,0.174278 0,0.236507 0.23844,0.306852 0.77378,0.228282 0.42558,-0.06246 0.7399,-0.140886 0.6985,-0.174278 z m -2.04907,-0.03163 c -0.0844,-0.0844 -0.30348,-0.09343 -0.48683,-0.02005 -0.20263,0.08108 -0.14244,0.141271 0.15346,0.153459 0.26775,0.01103 0.41777,-0.049 0.33337,-0.133406 z m 6.78396,5.039069 c -0.17139,-0.118528 -0.25234,-1.3913 -0.22188,-3.488611 0.0538,-3.705465 -0.039,-4.445 -0.55811,-4.445 -0.42655,0 -0.9366,-1.199442 -0.73427,-1.726707 0.10702,-0.278909 0.45229,-0.339253 1.41295,-0.246946 0.69922,0.06719 1.33371,0.184551 1.40996,0.26081 0.0763,0.07626 0.17759,1.607271 0.22517,3.402248 0.0476,1.794977 0.17122,3.596714 0.27478,4.00386 0.15543,0.611126 0.11884,0.713621 -0.20973,0.587538 -0.23257,-0.08925 -0.45952,0.0076 -0.54602,0.23301 -0.22619,0.589451 -0.17668,1.106188 0.10598,1.106188 0.1397,0 0.254,-0.2286 0.254,-0.508 0,-0.2794 0.1143,-0.508 0.254,-0.508 0.35372,0 0.3183,0.850103 -0.0508,1.2192 -0.33892,0.338919 -1.2005,0.397784 -1.61603,0.11041 z m 0.87621,-4.457285 c -0.33931,-0.847671 -0.35371,-0.789502 -0.38818,1.568173 l -0.0358,2.448502 0.38817,-1.568174 c 0.33497,-1.353241 0.33988,-1.688831 0.0358,-2.448501 z m -0.0744,-3.010453 c -0.0235,-1.531975 -0.41813,-2.221959 -0.76053,-1.329681 -0.12679,0.330415 -0.0887,0.365104 0.16738,0.152554 0.26708,-0.221658 0.32224,0.0181 0.28393,1.234073 -0.0262,0.83005 0.0381,1.509181 0.14283,1.509181 0.10472,0 0.17959,-0.704758 0.16639,-1.566127 z m -1.20339,-1.763732 c -0.54789,-0.347159 -0.81668,-0.260917 -0.47394,0.152062 0.17264,0.208012 0.42743,0.308026 0.56622,0.22225 0.15328,-0.09473 0.11705,-0.241673 -0.0923,-0.374313 z m 3.19837,8.903483 c -0.58329,-0.644528 -0.81029,-3.344449 -0.38861,-4.622149 0.50452,-1.528705 1.34899,-2.090783 3.14416,-2.092757 1.48427,-0.0016 1.5806,0.03621 1.92953,0.757913 0.5322,1.10081 0.67788,3.059042 0.24737,3.325115 -0.19023,0.117563 -1.03202,0.234714 -1.87065,0.260333 -0.83863,0.02562 -1.55738,0.05858 -1.59722,0.07325 -0.0398,0.01467 0.0424,0.241172 0.18267,0.503341 0.22339,0.417424 0.40573,0.448529 1.46701,0.250261 1.37607,-0.257078 1.85175,-0.152246 1.85175,0.408097 0,0.231378 -0.23154,0.392618 -0.5715,0.397972 l -0.5715,0.009 0.57395,0.318748 c 0.9931,0.551523 0.18225,0.93325 -1.98238,0.93325 -1.63707,0 -2.01603,-0.08199 -2.41458,-0.522377 z m 3.53387,-0.366623 c -0.0951,-0.247828 -0.48972,-0.381 -1.12896,-0.381 -0.87898,0 -1.03463,-0.100585 -1.47394,-0.9525 l -0.49117,-0.952501 -0.18213,0.717231 c -0.10201,0.401717 -0.0586,0.988331 0.0987,1.3335 0.25175,0.552521 0.43818,0.61627 1.80227,0.61627 1.24806,0 1.4952,-0.06847 1.37527,-0.381 z m -2.34416,-2.984501 c 0.34589,0.341158 3.15741,0.447528 3.35686,0.127001 0.0652,-0.104775 -0.59816,-0.152868 -1.47411,-0.106872 -1.78187,0.09356 -2.02443,-0.115239 -1.74674,-1.503668 0.11906,-0.595281 0.26528,-0.75088 0.61876,-0.658444 0.25457,0.06657 0.60195,-0.04656 0.77195,-0.251396 0.17,-0.204841 0.51726,-0.318001 0.77169,-0.251467 0.25443,0.06654 0.39854,0.01733 0.32025,-0.109341 -0.18679,-0.302236 -1.18284,-0.293595 -2.00071,0.01736 -0.81239,0.308873 -1.66544,1.669478 -1.6667,2.658378 -10e-4,0.708482 0.0178,0.721595 0.36295,0.254 0.29167,-0.395178 0.4278,-0.430024 0.6858,-0.175547 z m 1.99618,-0.691812 c 0.30615,-0.193556 0.317,-0.301411 0.0565,-0.561902 -0.34901,-0.349005 -1.07851,-0.05543 -1.26694,0.509862 -0.11893,0.356787 0.67445,0.390897 1.21043,0.05204 z m 1.22039,-0.503136 c -0.17052,-0.273047 -0.34563,-0.460856 -0.38913,-0.417354 -0.15056,0.150564 0.24216,0.913803 0.47019,0.913803 0.12594,0 0.0895,-0.223402 -0.0811,-0.496449 z m -98.436765,4.362307 c -0.392009,-0.398746 -0.556161,-0.414174 -1.390051,-0.130644 -1.450045,0.493028 -2.230485,0.0984 -2.225705,-1.125429 0.0063,-1.617963 0.459816,-2.184776 1.982858,-2.478319 1.665951,-0.321087 1.618534,-0.766468 -0.0816,-0.766468 h -1.27 l -0.08108,-0.990146 c -0.04459,-0.544581 0.04345,-1.067111 0.195659,-1.161179 0.152204,-0.09407 1.017351,-0.191438 1.922551,-0.216378 2.491138,-0.06864 2.661867,0.187374 2.661867,3.991528 0,2.520284 -0.06657,3.046371 -0.401775,3.175 -0.620865,0.238248 -0.832884,0.190124 -1.312724,-0.297965 z m 1.2065,-2.739558 c 0,-2.724308 -0.23269,-3.412302 -1.15409,-3.412302 -0.557685,0 -0.59374,0.0552 -0.32115,0.49169 0.168887,0.270429 0.500085,0.542165 0.735996,0.603857 0.303476,0.07936 0.416806,0.353286 0.387471,0.936554 -0.03943,0.784064 -0.09707,0.829437 -1.178344,0.927654 -2.08742,0.189611 -2.13777,0.21467 -2.47798,1.233284 -0.40351,1.208139 -0.152034,1.5082 0.98902,1.180091 0.473042,-0.136023 0.664073,-0.257623 0.424513,-0.270222 -0.239561,-0.0126 -0.549456,-0.235719 -0.688658,-0.495821 -0.376626,-0.703733 0.184244,-1.253024 1.378222,-1.349766 0.905756,-0.07339 1.025301,-0.01654 1.101722,0.523954 0.04715,0.333451 -0.06715,0.713628 -0.254,0.844837 -0.265422,0.186386 -0.270281,0.266739 -0.02222,0.367392 0.174625,0.07086 0.3175,0.290754 0.3175,0.488662 3e-6,0.197909 0.171453,0.359834 0.381003,0.359834 0.312112,0 0.381,-0.4393 0.381,-2.429699 z m -1.651,0.651698 c 0.453601,-0.194919 0.434807,-0.220207 -0.175509,-0.236148 -0.37593,-0.0098 -0.754152,0.09645 -0.840491,0.236148 -0.187412,0.303236 0.310332,0.303236 1.016,0 z m -0.127,-3.175 c 0,-0.254 -0.254,-0.381 -0.762,-0.381 -0.508,0 -0.762,0.127 -0.762,0.381 0,0.254 0.254,0.381 0.762,0.381 0.508,0 0.762,-0.127 0.762,-0.381 z m -0.4445,-0.803219 c -0.174625,-0.07046 -0.460375,-0.07046 -0.635,0 -0.174625,0.07046 -0.03175,0.128114 0.3175,0.128114 0.34925,0 0.492125,-0.05765 0.3175,-0.128114 z m 8.136424,6.31939 c -0.353651,-0.230834 -0.385902,-3.611171 -0.03445,-3.611171 0.11909,0 0.216527,0.6858 0.216527,1.524 0,0.846666 0.112888,1.524 0.254,1.524 0.1397,0 0.339725,0.0068 0.4445,0.01499 0.104775,0.0082 0.269601,-0.248931 0.366278,-0.5715 0.134224,-0.447849 0.164247,-0.376338 0.127,0.302509 -0.03721,0.678199 -0.169235,0.904403 -0.556778,0.953955 -0.2794,0.03572 -0.647083,-0.02583 -0.817075,-0.136784 z m 4.042875,-0.105971 c -0.499321,-0.49932 -0.347375,-0.683497 0.308519,-0.373965 0.337324,0.159191 0.559178,0.377038 0.493008,0.484102 -0.172344,0.27886 -0.450791,0.240599 -0.801527,-0.110137 z m 3.113979,-0.03332 c -0.058,-0.163283 -0.136576,-1.096978 -0.174615,-2.074878 -0.06291,-1.61731 -0.115075,-1.770674 -0.577164,-1.696935 -0.695145,0.110929 -1.050303,0.634272 -1.241387,1.829248 -0.09527,0.595752 -0.301528,1.010687 -0.502407,1.010687 -0.282826,0 -0.285625,-0.21267 -0.01646,-1.25034 0.178384,-0.687687 0.451411,-1.487787 0.60673,-1.778 0.231013,-0.431648 0.208717,-0.52766 -0.12253,-0.52766 -0.241399,0 -0.331737,0.118425 -0.223693,0.293245 0.115814,0.187389 0.06928,0.224052 -0.128907,0.101566 -0.170579,-0.105424 -0.250833,-0.250991 -0.178341,-0.323483 0.179149,-0.179149 -0.593908,-0.928765 -1.022708,-0.9917 -0.189913,-0.02787 -0.345298,0.03964 -0.345298,0.150032 0,0.327792 -1.480591,0.841348 -1.929254,0.669179 -0.264097,-0.101343 -0.366494,-0.342128 -0.282342,-0.663925 0.09869,-0.377405 0.006,-0.504914 -0.367174,-0.504914 -0.276055,0 -0.427325,0.116313 -0.338399,0.260197 0.215458,0.348621 -0.109863,1.771803 -0.405014,1.771803 -0.330357,0 -0.291602,-0.950307 0.0473,-1.15976 0.199403,-0.123237 0.188644,-0.230892 -0.03701,-0.370355 -0.174973,-0.108139 -0.247912,-0.379601 -0.16209,-0.60325 0.17,-0.443011 1.098367,-0.535925 1.679651,-0.168104 0.302219,0.191236 0.307767,0.299311 0.0324,0.63111 -0.41842,0.504167 -0.03608,0.512983 0.907399,0.02093 0.947324,-0.494063 1.845579,-0.483882 2.410453,0.02732 0.37228,0.336908 0.597397,0.35952 1.264401,0.127 1.192947,-0.415863 1.868246,-0.347747 2.402241,0.242308 0.396318,0.437928 0.467151,0.887113 0.426306,2.703392 -0.02694,1.19801 -0.105065,2.23428 -0.173607,2.302823 -0.272232,0.27223 -1.44944,0.251301 -1.54848,-0.02753 z m 0.872734,-0.402132 c 0.19498,-0.123462 0.284292,-0.407462 0.19847,-0.631111 -0.08582,-0.223649 -0.06579,-0.406635 0.04452,-0.406635 0.110307,0 0.219624,-0.691682 0.242923,-1.537071 0.02329,-0.845389 -0.05856,-1.474696 -0.181917,-1.398459 -0.123355,0.07624 -0.294759,-0.04505 -0.380901,-0.269535 -0.133878,-0.348885 -0.218585,-0.357893 -0.583372,-0.06204 -0.293771,0.238255 -0.367312,0.247169 -0.236004,0.02861 0.213871,-0.35599 0.128902,-0.386798 -0.452001,-0.163885 -0.512536,0.196679 -0.267319,0.608385 0.362359,0.608385 0.443284,0 0.471485,0.161709 0.354371,2.032 -0.126281,2.016675 -0.05079,2.231801 0.631551,1.799746 z m 30.315985,0.572035 c -0.174625,-0.07046 -0.3175,-0.284969 -0.3175,-0.47668 0,-0.292286 -0.168354,-0.289168 -1.042675,0.01931 -1.166284,0.411489 -2.144372,0.275517 -2.376897,-0.330433 -0.216306,-0.563682 0.11681,-2.567618 0.464381,-2.793603 0.158504,-0.103057 0.859691,-0.301677 1.558191,-0.441377 1.430147,-0.28603 1.490408,-0.750743 0.10162,-0.783696 -1.454546,-0.03451 -1.75262,-0.24255 -1.75262,-1.223216 0,-1.011295 0.136832,-1.076002 2.425207,-1.146871 2.272276,-0.07037 2.516749,0.286783 2.567028,3.750216 0.02157,1.486456 -0.06817,2.903329 -0.199438,3.148607 -0.231798,0.433119 -0.778556,0.539514 -1.427297,0.277741 z m 0.9525,-3.209981 c 0,-2.681121 -0.176116,-3.2258 -1.043021,-3.2258 -0.308368,0 -0.395092,0.146569 -0.300576,0.508 0.07307,0.2794 0.336802,0.508 0.58608,0.508 0.352267,0 0.447698,0.195367 0.428378,0.87697 -0.02448,0.864048 -0.04465,0.879443 -1.368259,1.044817 -0.738871,0.09232 -1.430747,0.170243 -1.537503,0.173172 -0.39955,0.01096 -0.859416,0.983783 -0.782173,1.654639 0.08583,0.745374 0.09606,0.747371 2.175574,0.424387 0.893257,-0.138738 1.0795,-0.09696 1.0795,0.242175 0,0.225412 0.17145,0.40984 0.381,0.40984 0.314007,0 0.381,-0.460022 0.381,-2.6162 z m -3.204454,1.488035 c -0.311102,-0.810721 0.0262,-1.275664 1.048189,-1.444858 1.732753,-0.286864 2.309965,0.798467 0.767423,1.442982 -1.114298,0.465583 -1.637464,0.466124 -1.815612,0.0019 z m 1.680454,-0.649837 c 0.298,-0.192583 0.2321,-0.247068 -0.302509,-0.25011 -0.37593,-0.0021 -0.754151,0.11041 -0.840491,0.25011 -0.200449,0.324332 0.641131,0.324332 1.143,0 z m -0.238206,-3.175 c 0,-0.1397 -0.289304,-0.290167 -0.642897,-0.334371 -0.458191,-0.05728 -0.642897,0.03878 -0.642897,0.334371 0,0.295586 0.184706,0.391652 0.642897,0.334371 0.353593,-0.0442 0.642897,-0.194671 0.642897,-0.334371 z m -0.338585,-0.788458 c -0.0844,-0.0844 -0.303479,-0.09343 -0.486834,-0.02005 -0.202624,0.08108 -0.142438,0.141271 0.153459,0.153459 0.267757,0.01103 0.417777,-0.049 0.333375,-0.133406 z m 28.8342892,6.051318 c -0.392008,-0.398746 -0.556161,-0.414173 -1.390051,-0.130644 -1.450045,0.493028 -2.230485,0.0984 -2.225705,-1.125429 0.0063,-1.617963 0.459816,-2.184776 1.982859,-2.478319 1.66595,-0.321087 1.618533,-0.766468 -0.0816,-0.766468 h -1.27 l -0.08108,-0.990146 c -0.04459,-0.544581 0.04346,-1.067111 0.195659,-1.161179 0.152204,-0.09407 1.017351,-0.191438 1.922551,-0.216378 2.4911378,-0.06864 2.6618668,0.187374 2.6618668,3.991528 0,2.520285 -0.06657,3.046371 -0.401775,3.175 -0.6208648,0.238249 -0.8328838,0.190125 -1.3127248,-0.297965 z m 1.2064998,-2.739558 c 0,-2.714881 -0.2338098,-3.412302 -1.1439648,-3.412302 -0.772059,0 -0.594586,0.693001 0.260751,1.0182 0.442501,0.168239 0.562303,0.400237 0.530743,1.027787 -0.03861,0.767731 -0.100754,0.81595 -1.177645,0.913769 -2.08742,0.189611 -2.137771,0.21467 -2.477981,1.233284 -0.403509,1.208139 -0.152034,1.508199 0.98902,1.18009 0.473042,-0.136023 0.664073,-0.257623 0.424513,-0.270222 -0.23956,-0.0126 -0.549456,-0.235718 -0.688658,-0.49582 -0.376626,-0.703733 0.184244,-1.253024 1.378222,-1.349766 0.905756,-0.07339 1.025301,-0.01654 1.101722,0.523953 0.04715,0.333452 -0.06715,0.713628 -0.254,0.844838 -0.265422,0.186386 -0.270281,0.266738 -0.02222,0.367391 0.174625,0.07086 0.3175,0.290755 0.3175,0.488663 3e-6,0.197908 0.171453,0.359833 0.381003,0.359833 0.3121128,0 0.3809998,-0.4393 0.3809998,-2.429698 z m -1.6509998,0.651698 c 0.453601,-0.194919 0.434807,-0.220207 -0.175509,-0.236148 -0.37593,-0.0098 -0.754151,0.09645 -0.840491,0.236148 -0.187411,0.303237 0.310332,0.303237 1.016,0 z m -0.0635,-3.175 c -0.09435,-0.377394 -1.400256,-0.307728 -1.53004,0.08162 -0.08114,0.243428 0.122362,0.313201 0.740832,0.254 0.46899,-0.04489 0.824133,-0.195922 0.789208,-0.335622 z m -0.508,-0.803219 c -0.174625,-0.07046 -0.460375,-0.07046 -0.635,0 -0.174625,0.07046 -0.03175,0.128114 0.3175,0.128114 0.34925,0 0.492125,-0.05765 0.3175,-0.128114 z m -52.2161542,6.096862 c -0.09205,-0.09204 -0.724456,-0.147636 -1.405359,-0.123536 -0.800412,0.02833 -1.342926,-0.08261 -1.534843,-0.313853 -0.19699,-0.237357 -0.272499,-1.285171 -0.224475,-3.114963 l 0.07236,-2.757293 h 0.889 0.889 l 0.07267,2.322017 0.07267,2.322017 0.81633,0.124239 c 0.448983,0.06833 0.902058,0.07395 1.006833,0.01249 0.104775,-0.06146 0.1905,-0.669754 0.1905,-1.351765 0,-0.682011 0.110556,-1.308347 0.245682,-1.391858 0.135123,-0.08351 0.18133,-0.473576 0.102684,-0.866811 -0.13306,-0.665304 -0.07606,-0.725833 0.820481,-0.871322 0.529913,-0.08599 1.016546,-0.103284 1.081405,-0.03842 0.126497,0.126496 -0.299169,3.816009 -0.584703,5.068005 -0.0949,0.416124 -0.30845,0.842999 -0.47455,0.94861 -0.373271,0.237338 -1.807926,0.260204 -2.035686,0.03244 z m 1.808168,-1.229645 c 0.04329,-0.2794 0.200396,-0.753904 0.349128,-1.054453 0.148732,-0.300548 0.209014,-0.700598 0.133959,-0.889 -0.0935,-0.234709 -0.142776,-0.202613 -0.156514,0.101953 -0.01102,0.244475 -0.130767,0.4445 -0.266083,0.4445 -0.135314,0 -0.180236,-0.17145 -0.09983,-0.381 0.08041,-0.20955 0.03106,-0.381 -0.109669,-0.381 -0.140729,0 -0.226307,0.371475 -0.19017,0.8255 0.08887,1.116555 -0.233406,1.658168 -1.06871,1.796081 -0.425559,0.07026 -0.302331,0.101678 0.31529,0.08038 0.803737,-0.02772 1.030201,-0.140256 1.092594,-0.542961 z m -2.804361,0.20255 c -0.48243,-0.07547 -0.746308,-0.302129 -0.854748,-0.734188 -0.130109,-0.518388 -0.221079,-0.571726 -0.533245,-0.31265 -0.327848,0.272089 -0.315889,0.336167 0.09275,0.496974 0.426024,0.167648 0.428287,0.18625 0.02461,0.202462 -0.244475,0.0098 -0.443936,0.103577 -0.443245,0.208352 7.62e-4,0.104775 0.543613,0.203488 1.2065,0.219361 0.662884,0.01587 0.891199,-0.02027 0.507365,-0.08031 z m -0.932345,-1.59955 c 0.128273,0 0.233226,-0.28575 0.233226,-0.635 0,-0.34925 -0.1143,-0.635 -0.254,-0.635 -0.1397,0 -0.254,-0.17145 -0.254,-0.381 0,-0.20955 -0.17145,-0.381 -0.381,-0.381 -0.283533,0 -0.381,0.299353 -0.381,1.170175 0,0.962693 0.07124,1.142839 0.401774,1.016 0.220975,-0.0848 0.506725,-0.154175 0.635,-0.154175 z m 4.428216,-1.796163 c 0.09424,-0.429089 0.103324,-0.848189 0.02019,-0.931333 -0.08316,-0.08314 -0.151184,0.0589 -0.151184,0.315663 0,0.256758 -0.189164,0.675858 -0.420367,0.931333 -0.374886,0.414246 -0.377071,0.4645 -0.02018,0.4645 0.240195,0 0.468688,-0.311901 0.571538,-0.780163 z m -0.384991,-0.758827 c 0,-0.131456 -0.1143,-0.23901 -0.254,-0.23901 -0.1397,0 -0.254,0.178196 -0.254,0.39599 0,0.217795 0.1143,0.325349 0.254,0.23901 0.1397,-0.08634 0.254,-0.264535 0.254,-0.39599 z m -3.809999,0.171614 c 0,-0.05356 -0.228758,-0.157197 -0.508351,-0.230312 -0.279593,-0.07311 -0.444297,-0.0293 -0.366009,0.09738 0.136716,0.22121 0.87436,0.333361 0.87436,0.132936 z m 0,-0.664624 c 0,-0.1397 -0.257175,-0.25225 -0.5715,-0.25011 -0.462138,0.0031 -0.498592,0.05101 -0.1905,0.25011 0.492445,0.318242 0.762,0.318242 0.762,0 z m 5.644517,5.446597 c -0.652638,-0.457124 -0.764256,-1.662626 -0.197498,-2.132994 0.541081,-0.449058 1.516997,-0.227012 1.62354,0.369397 0.143177,0.801488 0.47533,1.010965 1.115807,0.7037 0.317149,-0.15215 0.786163,-0.34421 1.042256,-0.426801 0.822482,-0.265255 0.291503,-0.779327 -0.994751,-0.963073 -1.439984,-0.205708 -2.255352,-0.958036 -1.97871,-1.825727 0.094,-0.294855 0.182377,-0.821849 0.19638,-1.171099 0.0253,-0.630985 0.04071,-0.635 2.438458,-0.635 h 2.413 l 0.07959,0.8255 0.07959,0.8255 -1.603594,0.04578 c -1.52529,0.04355 -1.541894,0.05054 -0.340042,0.143247 0.694951,0.05361 1.409326,0.218448 1.5875,0.366318 0.383235,0.318058 0.435173,1.885932 0.06995,2.111652 -0.146711,0.09067 -0.254,-0.149762 -0.254,-0.56921 0,-0.728827 -0.391384,-1.33579 -0.861347,-1.33579 -0.138461,0 -0.02988,0.167815 0.2413,0.372922 0.476257,0.360223 0.471424,0.37346 -0.141953,0.388724 -0.580827,0.01445 -0.594479,0.03934 -0.160025,0.291753 0.383512,0.222815 0.407967,0.318399 0.127,0.496387 -0.29446,0.186535 -0.294363,0.221033 5.08e-4,0.224325 0.29227,0.0033 0.293624,0.07572 0.0084,0.448389 -0.187125,0.244475 -0.240995,0.360552 -0.119715,0.257948 0.121282,-0.102603 0.371053,0.0117 0.555048,0.254 0.313055,0.412263 0.335056,0.408747 0.342615,-0.05475 0.0056,-0.340681 0.08997,-0.413408 0.270404,-0.232973 0.376651,0.376651 0.06575,0.993982 -0.66925,1.328869 -0.963538,0.439018 -4.19228,0.368087 -4.870559,-0.106998 z m 1.126004,-0.999786 c -0.330753,-0.71312 -0.928522,-0.854954 -0.928522,-0.220312 0,0.439764 0.764893,1.135694 1.052721,0.957807 0.09313,-0.05756 0.03724,-0.389429 -0.124199,-0.737495 z m 2.932278,0.523263 c 0.423504,-0.01054 0.595323,-0.107552 0.449234,-0.253638 -0.146085,-0.146087 -0.699823,-0.07437 -1.447799,0.18751 -0.666179,0.233242 -0.868335,0.347379 -0.449235,0.253639 0.4191,-0.09374 1.07061,-0.17812 1.4478,-0.187511 z m -0.209746,-2.989762 c -0.08428,-0.136364 -0.52693,-0.177827 -0.983673,-0.09214 -0.595193,0.111659 -0.869912,0.05293 -0.969782,-0.207324 -0.230668,-0.601114 0.756077,-1.239122 2.118967,-1.370079 1.728744,-0.16611 1.427317,-0.343907 -0.69804,-0.411738 -1.602766,-0.05115 -1.749712,-0.0126 -1.780677,0.467109 -0.01857,0.287574 -0.07,0.748543 -0.1143,1.024376 -0.06056,0.377056 0.13573,0.573028 0.790968,0.789687 0.945965,0.31279 1.882681,0.198379 1.636537,-0.199889 z m 8.210336,3.680138 c -0.342635,-0.580854 -0.418746,-1.925139 -0.197467,-3.487659 0.332816,-2.350114 0.895096,-2.924116 3.056369,-3.120093 1.748722,-0.158569 2.032874,0.01762 2.039818,1.264802 0.0045,0.805263 -0.25434,0.898367 -1.575564,0.566761 -0.524993,-0.131765 -0.82186,-0.03004 -1.295984,0.444087 -0.519506,0.519504 -0.589379,0.76979 -0.449984,1.611827 l 0.165021,0.996825 h 1.6437 1.6437 v 0.889 0.889 l -2.455979,0.07245 c -1.350787,0.03985 -2.508921,-0.0173 -2.57363,-0.127 z m 1.593906,-0.570931 c 0.246855,-0.15611 0.440116,-0.133165 0.567609,0.06739 0.106324,0.167251 0.195067,0.186771 0.197205,0.04338 0.0023,-0.150612 0.432954,-0.219795 1.019889,-0.163821 0.803572,0.07663 1.016,0.01165 1.016,-0.310788 0,-0.453423 -0.391439,-0.547767 -0.63534,-0.153129 -0.174397,0.28218 -2.142975,0.06502 -2.517666,-0.277731 -0.127602,-0.116726 -0.21624,-0.63154 -0.196974,-1.144031 0.0343,-0.9123 0.02454,-0.922303 -0.466494,-0.477928 -0.595521,0.538939 -0.678597,1.259439 -0.120526,1.045287 0.437635,-0.167936 0.50512,0.120134 0.118674,0.50658 -0.313403,0.313403 -0.05873,1.110899 0.353002,1.105383 0.159677,-0.0021 0.458757,-0.110405 0.664621,-0.240592 z m -0.376227,-4.225634 c -0.204145,-0.153513 -0.316753,-0.35449 -0.250238,-0.446616 0.06652,-0.09213 -0.01049,-0.05702 -0.171153,0.07802 -0.160648,0.135037 -0.31241,0.587155 -0.337251,1.004707 l -0.04516,0.759187 0.587489,-0.558091 c 0.500919,-0.475852 0.532796,-0.599219 0.216317,-0.837205 z m 2.03393,-0.456669 c 0.2794,0.02257 0.676737,0.08306 0.88297,0.134411 0.231552,0.05766 0.40832,-0.125214 0.462166,-0.478127 0.04796,-0.314325 -0.03505,-0.5715 -0.18447,-0.5715 -0.149416,0 -0.284925,0.200025 -0.30113,0.4445 -0.02621,0.395447 -0.04182,0.397833 -0.14146,0.02163 -0.160081,-0.604443 -0.894885,-0.821973 -1.162322,-0.344092 -0.122087,0.218157 -0.328346,0.330909 -0.458353,0.25056 -0.130007,-0.08035 -0.42341,-0.04142 -0.652008,0.08651 -0.283896,0.158877 -0.324787,0.288741 -0.129011,0.409737 0.15764,0.09743 0.286618,0.05609 0.286618,-0.09185 0,-0.147944 0.1143,-0.26899 0.254,-0.26899 0.1397,0 0.25575,0.200025 0.257889,0.4445 0.0023,0.257772 0.08228,0.334685 0.1905,0.183088 0.102636,-0.143776 0.415211,-0.242944 0.694611,-0.220372 z m 37.25213,5.231747 c -0.504197,-0.07824 -0.568477,-0.194512 -0.425719,-0.77006 0.09248,-0.372846 0.273995,-0.716003 0.403367,-0.762569 0.277592,-0.09992 0.31444,-0.894447 0.05358,-1.155307 -0.193568,-0.193569 -0.804382,-2.346567 -0.82315,-2.901444 -0.0081,-0.238038 0.328732,-0.309604 1.195291,-0.254 1.128517,0.07241 1.203652,0.120795 1.162433,0.748519 l -0.04407,0.671101 1.26603,-0.833779 c 0.732922,-0.482687 1.464671,-0.781832 1.737769,-0.710416 0.625977,0.163697 1.192967,1.524118 0.857117,2.056551 -0.44896,0.711749 -1.059398,0.963605 -1.567083,0.646552 -0.555475,-0.346902 -1.693882,-0.170784 -2.106023,0.325812 -0.163258,0.196718 -0.309626,0.920866 -0.325254,1.609218 -0.03003,1.322439 -0.224983,1.509723 -1.384288,1.329822 z m 0.720868,-1.320963 c 0,-0.2794 -0.04382,-0.508 -0.09738,-0.508 -0.05356,0 -0.157155,0.2286 -0.230221,0.508 -0.07306,0.2794 -0.02925,0.508 0.09738,0.508 0.126622,0 0.230221,-0.2286 0.230221,-0.508 z m 0.324063,-2.378127 c -0.09809,-0.158712 -0.145367,-0.602962 -0.105062,-0.98722 0.06,-0.572007 -0.02764,-0.698653 -0.483481,-0.698653 -0.462288,0 -0.525709,0.09698 -0.373741,0.5715 0.100665,0.314325 0.219011,0.85725 0.262989,1.2065 0.04398,0.34925 0.08925,0.67757 0.100597,0.729601 0.01135,0.05203 0.190827,-0.04665 0.398838,-0.21928 0.208011,-0.172634 0.297947,-0.443736 0.19986,-0.602448 z m 1.838025,-0.878451 c -0.201831,-0.201831 -0.638546,0.256349 -0.483481,0.507247 0.105471,0.170655 0.23637,0.144676 0.371333,-0.0737 0.11464,-0.185494 0.165107,-0.380593 0.112148,-0.433552 z m 1.764063,0.480129 c 0.219639,-0.355382 -0.206121,-0.520887 -0.883971,-0.343626 -0.562102,0.146994 -0.569229,0.170236 -0.107579,0.350896 0.680936,0.266473 0.823013,0.265431 0.99155,-0.0073 z m -0.171577,-0.779551 c 0.298778,0 0.33477,-0.07626 0.131793,-0.279232 -0.319829,-0.31983 -1.346367,-0.07316 -1.346367,0.323524 0,0.145232 0.180797,0.19468 0.401774,0.109883 0.220975,-0.0848 0.586735,-0.154175 0.8128,-0.154175 z m -91.130569,4.205991 c 0,-0.341006 0.1143,-0.690651 0.254,-0.776991 0.311506,-0.19252 0.338013,-1.322368 0.03377,-1.439333 -0.121127,-0.04657 -0.300802,-0.741892 -0.399277,-1.545167 l -0.179047,-1.4605 h 1.161275 c 1.078194,0 1.161277,0.04677 1.161277,0.653641 v 0.653641 l 1.367021,-0.78213 c 1.317975,-0.754069 1.386037,-0.766129 1.897019,-0.336141 0.841672,0.708266 0.888029,1.726859 0.102024,2.241869 -0.528213,0.346098 -0.753453,0.372038 -1.139119,0.131186 -0.536808,-0.335243 -1.365333,-0.160972 -2.036445,0.428344 -0.308462,0.270867 -0.4445,0.766954 -0.4445,1.620957 v 1.230633 h -0.888999 c -0.773202,0 -0.889,-0.08076 -0.889001,-0.620009 z m 1.606423,-2.738306 c 0.219972,-0.13991 0.211958,-0.19093 -0.03043,-0.193795 -0.23815,-0.0028 -0.282951,-0.249401 -0.162232,-0.89289 0.15559,-0.829372 0.122824,-0.889 -0.488518,-0.889 -0.515125,0 -0.621401,0.09508 -0.496839,0.4445 0.08715,0.244475 0.261973,0.578895 0.38849,0.743156 0.126517,0.164261 0.209532,0.450011 0.184475,0.635 -0.02506,0.184989 -0.0128,0.793544 0.02724,1.352344 l 0.07279,1.016 0.103223,-1.012704 c 0.05677,-0.556987 0.237584,-1.098162 0.401803,-1.202611 z m 1.430452,-0.585562 c 0.145819,0.09012 0.265125,0.05079 0.265125,-0.0874 0,-0.156971 0.278775,-0.171308 0.742882,-0.0382 0.728472,0.208923 1.035118,0.124642 1.035118,-0.2845 0,-0.112925 -0.371475,-0.152731 -0.8255,-0.08846 l -0.8255,0.116859 0.8255,-0.286953 c 0.770039,-0.267672 1.134425,-0.721464 0.579321,-0.721464 -0.431965,0 -2.246866,1.03347 -2.594021,1.477128 -0.298701,0.381738 -0.288074,0.391281 0.09858,0.0885 0.238354,-0.186652 0.552679,-0.265631 0.6985,-0.17551 z m 71.6391202,3.471179 c -0.851956,-0.155539 -0.892202,-0.212016 -0.965867,-1.355366 -0.07102,-1.102329 -0.01887,-1.223062 0.685886,-1.5875 0.419514,-0.21694 1.173703,-0.394436 1.675973,-0.394436 h 0.913219 l -0.07511,1.7145 c -0.07133,1.628424 -0.106985,1.716273 -0.710106,1.749802 -0.34925,0.01942 -1.03505,-0.03773 -1.524,-0.127 z m 1.729839,-1.677474 0.07884,-1.221464 -0.816631,0.163327 c -1.118641,0.223728 -1.539626,0.632505 -1.44939,1.407362 0.05791,0.497293 0.260284,0.69417 0.838342,0.815583 1.158794,0.243389 1.2638,0.152709 1.348839,-1.164808 z M -53.34459,-46.03426 c 0,-0.287645 0.1143,-0.522991 0.254,-0.522991 0.1397,0 0.254,0.164705 0.254,0.36601 0,0.201305 -0.1143,0.436651 -0.254,0.52299 -0.1397,0.08634 -0.254,-0.07836 -0.254,-0.366009 z m -24.386508,0.112009 c -0.03379,-0.1397 -0.03579,-1.24912 -0.0044,-2.465378 0.05623,-2.181198 0.04812,-2.213607 -0.593923,-2.374751 -0.358013,-0.08986 -0.721622,-0.386095 -0.80802,-0.658311 -0.171335,-0.539798 0.264897,-1.23256 0.776133,-1.23256 0.185788,0 0.393276,-0.481578 0.492463,-1.143 0.146413,-0.976358 0.257177,-1.143 0.759739,-1.143 0.773753,0 1.248047,0.60356 1.09665,1.395541 -0.09863,0.515963 -0.02014,0.637195 0.414609,0.640349 0.669036,0.0049 1.073577,0.280063 1.021027,0.69461 -0.02212,0.174625 -0.05454,0.5461 -0.072,0.8255 -0.02276,0.364067 -0.211666,0.508 -0.66675,0.508 -0.612206,0 -0.635,0.05927 -0.635,1.651 0,1.241059 -0.08777,1.651 -0.353464,1.651 -0.194406,0 -0.426357,0.290425 -0.515447,0.645388 -0.08909,0.354964 -0.264279,0.582165 -0.389311,0.504891 -0.125034,-0.07727 -0.279872,0.06093 -0.344091,0.307112 -0.06422,0.246185 -0.144406,0.333309 -0.178196,0.193609 z m 0.907253,-2.82171 c -0.09973,-0.397336 -0.04098,-0.614223 0.169918,-0.627343 0.197523,-0.01229 0.215346,-0.06434 0.04603,-0.134435 -0.169629,-0.07022 -0.2175,-0.479264 -0.123993,-1.059448 0.128184,-0.795346 0.262494,-0.957797 0.847806,-1.025435 0.897596,-0.103726 0.899478,-0.497216 0.0029,-0.601258 -0.427217,-0.04957 -0.808621,-0.314301 -0.995365,-0.69087 l -0.30275,-0.610499 -0.08414,0.731613 c -0.05454,0.474374 -0.307398,0.844002 -0.719127,1.051255 -0.567883,0.285856 -0.579963,0.320037 -0.1143,0.323386 0.887717,0.0064 1.087432,0.453249 0.938179,2.099214 -0.10718,1.182016 -0.06689,1.493607 0.173889,1.344797 0.185651,-0.114738 0.251267,-0.441223 0.160976,-0.800977 z m 0.08607,-5.448855 c -0.49228,-0.304246 -0.612483,-0.06573 -0.210795,0.418279 0.244975,0.295177 0.374363,0.325134 0.448152,0.103762 0.05706,-0.171176 -0.04975,-0.406094 -0.237357,-0.522041 z m 20.525586,7.381565 c 0.07306,-0.2794 0.233814,-0.508 0.35722,-0.508 0.123406,0 0.224376,0.2286 0.224376,0.508 0,0.2794 -0.160749,0.508 -0.35722,0.508 -0.232169,0 -0.310716,-0.177835 -0.224376,-0.508 z m 2.105596,0 c 0,-0.1397 0.121046,-0.254 0.268991,-0.254 0.147945,0 0.198349,0.1143 0.112009,0.254 -0.08634,0.1397 -0.207386,0.254 -0.268991,0.254 -0.06161,0 -0.112009,-0.1143 -0.112009,-0.254 z m -0.0736,-1.016 c -0.155456,-0.594462 -0.892643,-0.679223 -1.10455,-0.127 -0.151313,0.394312 -0.853854,0.538751 -0.853854,0.175547 0,-0.112999 0.151788,-0.413037 0.33731,-0.66675 0.375686,-0.513785 1.743433,-0.632567 1.899307,-0.164946 0.07301,0.219029 0.208316,0.210745 0.518585,-0.03175 0.374408,-0.292626 0.382396,-0.28039 0.07388,0.113164 -0.190253,0.242696 -0.279565,0.614171 -0.19847,0.8255 0.08681,0.226218 0.0062,0.384235 -0.195958,0.384235 -0.188872,0 -0.403185,-0.2286 -0.47625,-0.508 z"
       id="path871"
       inkscape:connector-curvature="0" />
  </g>
</svg>
